<svg width="512" height="384" viewBox="0 0 512 384" fill="none" xmlns="http://www.w3.org/2000/svg">
<g clip-path="url(#clip0_113_10)">
<path d="M107.455 101.867C105.529 103.209 105.362 104.823 106.98 106.44C107.859 107.356 109.562 107.571 112.814 107.266C114.006 107.156 117.063 107.061 119.645 107.114C123.934 107.156 124.576 107.068 127.865 106.046C129.821 105.401 132.346 104.431 133.469 103.858C134.626 103.275 135.646 102.847 135.745 102.928C135.923 103.021 140.556 109.91 153.142 128.754C155.42 132.136 160.378 139.593 164.214 145.354C168.073 151.071 171.141 155.917 171.092 156.119C171.066 156.275 170.496 156.713 169.894 157.049C169.258 157.395 168.732 157.856 168.727 158.081C168.722 158.305 169.242 159.259 169.897 160.171C170.99 161.653 171.223 161.804 171.893 161.447C173.89 160.454 173.79 160.374 176.077 163.902L178.187 167.224L172.359 179.336C169.122 186.03 166.06 192.448 165.52 193.582C164.709 195.396 164.399 195.716 163.6 195.778C163.083 195.79 162.346 195.573 161.949 195.25C160.567 194.155 159.073 193.653 157.6 193.702C156.757 193.74 155.663 193.449 154.964 192.996C153.678 192.206 151.742 191.841 150.522 192.221C150.149 192.337 149.389 192.164 148.868 191.805C147.683 190.983 146.184 190.706 144.616 191.044C143.917 191.187 142.595 191.003 141.592 190.646C139.964 190.073 138.345 190.13 136.995 190.81C136.87 190.886 136.065 190.69 135.263 190.382C134.181 190.012 133.273 189.959 131.817 190.3C130.711 190.57 128.946 190.635 127.816 190.466C126.259 190.243 125.505 190.329 124.574 190.804C123.667 191.234 122.845 191.341 121.466 191.212C119.954 191.013 119.323 191.135 118.098 191.738C117.292 192.138 116.465 192.469 116.241 192.464C113.299 192.449 112.273 192.619 111.213 193.395C110.301 194.05 109.827 194.198 108.503 194.126C107.156 194.098 106.749 194.225 105.61 194.988C104.87 195.478 103.95 195.987 103.533 196.079C103.092 196.216 101.918 196.507 100.958 196.768C99.8964 197.061 98.8302 197.578 98.4398 197.997C98.026 198.46 97.0171 198.923 95.8092 199.224C94.3641 199.598 93.5691 200.031 92.71 200.856C91.942 201.615 90.8969 202.201 89.7101 202.569C88.3538 202.991 87.6372 203.437 86.9453 204.321C86.3235 205.072 85.3778 205.738 84.1549 206.229C82.8302 206.753 82.0774 207.321 81.396 208.24C80.9099 208.948 80.0869 209.65 79.5444 209.819C78.2665 210.253 76.2069 212.121 75.9278 213.137C75.7936 213.662 75.3693 214.091 74.759 214.281C73.4027 214.702 71.8329 216.232 71.3564 217.569C71.0819 218.361 70.5536 218.934 69.6463 219.365C68.6479 219.861 68.0729 220.523 67.3356 221.98C66.8192 223.07 66.2501 223.99 66.1145 224.032C65.2668 224.296 63.3548 226.638 63.0501 227.811C62.8539 228.615 62.2276 229.591 61.6443 230.107C60.2848 231.236 59.5288 232.512 59.4101 233.924C59.3414 234.541 58.9207 235.341 58.4181 235.757C57.3555 236.645 56.4909 238.29 56.3488 239.747C56.3035 240.319 55.7765 241.375 55.1887 242.115C54.4629 243.01 54.0482 244.069 53.8383 245.547C53.7137 246.701 53.458 247.673 53.2885 247.725C52.6104 247.936 51.5895 250.633 51.6509 252.027C51.6664 252.915 51.3746 254.009 50.9223 254.708C50.1324 255.994 49.7672 257.93 50.1466 259.15C50.2625 259.523 50.0898 260.283 49.731 260.804C48.8861 262.033 48.6061 263.645 48.9891 265.236C49.2187 266.094 49.0986 267.024 48.6991 267.892C48.1465 269.105 48.1057 272.203 48.6239 272.675C48.7678 272.779 48.6395 273.562 48.3417 274.398C47.9375 275.491 47.8853 276.399 48.2262 277.855C48.4956 278.961 48.5607 280.726 48.4021 281.89C48.1455 283.457 48.2312 284.212 48.7169 285.176C49.1476 286.083 49.2649 286.939 49.1146 288.25C48.9387 289.718 49.0711 290.383 49.6645 291.574C50.0636 292.38 50.3948 293.207 50.3902 293.431C50.3857 296.407 50.5556 297.433 51.3208 298.459C51.9655 299.337 52.1236 299.845 52.0796 300.9C52.0324 302.662 52.317 303.578 53.3255 304.789C54.0274 305.612 54.2405 306.178 54.399 307.765C54.5553 309.464 54.7051 309.826 55.6948 310.857C56.5301 311.75 56.9081 312.488 57.2046 313.92C57.5349 315.342 57.9024 316.046 58.8266 316.985C59.4864 317.673 60.1393 318.697 60.2846 319.284C60.8046 321.316 61.0644 321.793 62.247 322.727C62.998 323.348 63.6638 324.294 64.1554 325.517C64.6787 326.842 65.2473 327.595 66.1656 328.276C66.8744 328.762 67.5764 329.585 67.745 330.128C68.1793 331.405 70.0465 333.465 71.0628 333.744C71.5879 333.878 72.0172 334.303 72.2069 334.913C72.6179 336.235 74.092 337.748 75.506 338.349C76.2405 338.679 76.9236 339.322 77.3227 340.127C77.8213 341.013 78.5722 341.635 79.9395 342.326C81.0062 342.887 81.9162 343.422 81.9583 343.557C82.2218 344.405 84.5637 346.317 85.7367 346.622C86.5413 346.818 87.5168 347.444 88.0327 348.028C89.1617 349.387 90.4378 350.143 91.8504 350.262C92.4667 350.331 93.2667 350.751 93.6832 351.254C94.5712 352.316 96.2157 353.181 97.6728 353.323C98.2446 353.368 99.3008 353.895 100.041 354.483C100.936 355.209 101.995 355.624 103.473 355.834C104.627 355.958 105.599 356.214 105.641 356.35C105.841 356.994 108.638 358.095 109.964 358.055C110.841 358.006 111.935 358.297 112.633 358.75C113.92 359.54 115.856 359.905 117.076 359.525C117.449 359.409 118.209 359.582 118.73 359.941C119.959 360.786 121.571 361.066 123.162 360.683C124.02 360.453 124.95 360.573 125.818 360.973C127.031 361.525 130.129 361.566 130.6 361.048C130.704 360.904 131.488 361.032 132.324 361.33C133.417 361.734 134.325 361.787 135.781 361.446C136.887 361.176 138.652 361.111 139.816 361.27C141.373 361.492 142.138 361.441 143.068 360.966C143.908 360.556 144.842 360.451 146.254 360.57C148.014 360.73 148.466 360.627 149.761 359.889C150.603 359.367 151.44 359.07 151.696 359.176C152.721 359.602 155.325 359.127 156.419 358.341C157.263 357.706 157.805 357.538 158.826 357.592C160.622 357.629 161.911 357.229 162.84 356.27C163.527 355.611 164.036 355.453 165.589 355.305C167.243 355.125 167.707 354.943 168.702 354.077C169.515 353.341 170.479 352.855 171.992 352.459C173.709 352 174.321 351.698 175.115 350.782C175.851 349.921 176.453 349.585 177.479 349.415C178.82 349.184 181.008 347.612 181.24 346.684C181.313 346.439 182.04 346.027 182.888 345.763C184.583 345.237 186.157 344.078 186.605 343.009C186.737 342.596 187.375 342.138 187.986 341.948C189.444 341.495 190.941 340.211 191.621 338.81C191.948 338.188 192.534 337.56 192.975 337.423C194.263 337.022 195.661 335.658 196.252 334.21C196.582 333.476 197.112 332.79 197.417 332.696C198.502 332.358 200.363 330.33 200.715 329.068C200.919 328.41 201.28 327.777 201.517 327.703C202.501 327.397 204.217 325.265 204.626 323.948C204.833 323.177 205.483 322.157 206.076 321.675C207.173 320.777 208.59 317.92 208.348 317.14C208.274 316.902 208.414 316.636 208.652 316.562C209.635 316.256 211.217 313.571 211.338 312.046C211.401 311.171 211.618 310.434 211.821 310.371C212.533 310.15 213.859 307.358 213.864 306.055C213.859 305.202 214.159 304.253 214.757 303.547C215.587 302.508 216.307 299.681 216.002 298.698C215.928 298.461 216.223 297.737 216.618 297.093C217.557 295.686 217.883 293.986 217.515 292.799C217.367 292.324 217.455 291.888 217.692 291.814C220.587 290.84 253.531 276.846 255.032 275.933C259.217 273.368 263.446 268.67 265.478 264.32C266.664 261.795 267.54 257.916 267.533 255.501C267.522 254.389 267.6 253.324 267.649 253.123C267.743 252.945 269.085 252.119 270.651 251.297C272.763 250.195 275.796 249.066 282.295 247.009C292.005 243.917 292.743 243.539 293.139 241.222C293.393 239.767 293.224 239.225 292.19 238.17C290.562 236.52 289.212 236.605 281.079 238.909C272.62 241.241 264.865 242.61 263.892 241.872C263.56 241.64 263.175 241.239 263.101 241.002C262.993 240.775 262.865 240.481 262.778 240.322C262.594 239.97 260.662 237.819 260.11 237.358C259.856 237.14 259.361 236.624 258.976 236.223C258.591 235.822 258.018 235.294 257.652 235.073C257.087 234.691 257.034 234.522 257.355 233.641C257.602 233.118 268.051 207.041 280.662 175.717L303.577 118.808L307.092 113.848C309.035 111.125 310.796 109.016 311.008 109.099C311.196 109.227 312.378 110.756 313.599 112.533C314.821 114.309 316.047 115.862 316.382 115.981C316.682 116.111 318.243 116.109 319.83 115.95C325.376 115.491 324.785 115.265 328.32 118.74C330.081 120.461 331.638 121.762 331.81 121.597C332.026 121.455 334.09 123.788 336.807 127.146C341.318 132.808 341.449 132.99 341.115 133.949C340.947 134.485 340.487 135.037 340.148 135.143C338.995 135.501 337.168 137.519 336.782 138.791C336.578 139.45 336.217 140.082 335.98 140.156C334.962 140.472 333.246 142.605 332.811 144.078C332.568 144.972 332.033 145.882 331.624 146.121C330.566 146.784 329.449 148.693 329.309 150.038C329.24 150.654 329.015 151.245 328.812 151.308C327.896 151.592 326.477 153.967 326.219 155.646C326.075 156.62 325.811 157.446 325.642 157.499C324.964 157.709 323.614 160.546 323.633 161.804C323.638 162.657 323.338 163.606 322.74 164.312C321.91 165.351 321.19 168.178 321.495 169.161C321.569 169.399 321.274 170.122 320.879 170.766C319.998 172.118 319.603 173.839 319.94 174.924C320.067 175.331 319.843 176.405 319.42 177.317C318.704 178.841 318.48 180.993 318.891 182.315C318.986 182.62 318.896 183.169 318.631 183.512C318.028 184.443 317.778 187.346 318.206 188.366C318.453 188.921 318.398 189.942 318.085 190.969C317.664 192.364 317.695 193.061 318.161 194.441C318.561 195.729 318.613 196.494 318.289 197.487C317.966 198.48 318.028 199.278 318.521 200.984C318.964 202.408 319.095 203.669 318.954 204.531C318.764 205.594 318.873 206.303 319.485 207.675C320.076 208.978 320.259 209.926 320.189 211.137C320.105 212.539 320.229 213.058 320.977 214.387C321.682 215.581 321.914 216.327 321.967 217.575C321.997 218.867 322.231 219.501 322.884 220.525C323.93 222.096 323.92 222.062 324.323 224.316C324.541 225.736 324.832 226.314 325.678 227.241C326.492 228.067 326.794 228.679 326.865 229.624C326.971 231.041 327.511 232.063 328.721 233.323C329.195 233.771 329.843 235.019 330.204 236.06C330.701 237.541 331.082 238.167 332.034 238.838C332.897 239.462 333.421 240.191 333.847 241.323C334.408 243.008 335.482 244.31 336.596 244.782C336.985 244.958 337.444 245.597 337.644 246.241C338.108 247.733 339.326 249.139 340.761 249.808C341.472 250.182 342.011 250.721 342.201 251.331C342.591 252.586 343.669 253.664 345.382 254.507C346.137 254.904 346.833 255.469 346.949 255.842C347.307 256.995 348.896 258.397 350.291 258.819C351.117 259.083 351.881 259.626 352.162 260.171C352.844 261.409 354.471 262.577 355.814 262.829C356.485 262.955 357.228 263.43 357.686 264.068C358.428 265.139 360.76 266.422 362.029 266.437C362.41 266.467 363.219 267.034 363.834 267.698C364.669 268.591 365.469 269.012 366.856 269.287C367.919 269.477 369.2 270.009 369.718 270.48C370.909 271.56 372.592 272.189 373.931 272.071C374.549 272.027 375.064 272.127 375.106 272.263C375.327 272.975 378.424 274.206 379.818 274.145C380.74 274.119 381.834 274.411 382.533 274.863C383.819 275.653 385.755 276.018 386.975 275.639C387.348 275.523 388.108 275.695 388.629 276.054C389.814 276.876 391.313 277.153 392.881 276.815C393.546 276.682 394.779 276.82 395.581 277.128C397.008 277.652 400.029 277.679 400.5 277.161C400.604 277.017 401.387 277.146 402.223 277.444C403.316 277.848 404.224 277.9 405.68 277.559C406.786 277.29 408.551 277.225 409.715 277.383C411.272 277.606 412.037 277.554 412.967 277.079C413.807 276.669 414.741 276.565 416.154 276.683C417.869 276.819 418.365 276.74 419.558 276.034C420.502 275.481 421.18 275.27 421.661 275.381C423.058 275.69 425.258 275.23 426.341 274.409C427.185 273.775 427.66 273.628 428.545 273.724C430.081 273.879 431.369 273.479 432.614 272.46C433.437 271.758 434.003 271.545 435.522 271.407C437.142 271.238 437.607 271.057 438.601 270.19C439.356 269.509 440.423 268.992 441.688 268.636C443.133 268.261 443.962 267.817 444.844 266.948C445.498 266.299 446.522 265.646 447.109 265.501C449.141 264.981 449.618 264.721 450.552 263.538C451.173 262.787 452.119 262.121 453.342 261.63C454.667 261.106 455.42 260.538 456.101 259.62C456.587 258.911 457.41 258.209 457.953 258.04C459.23 257.606 461.29 255.739 461.569 254.722C461.703 254.197 462.128 253.768 462.738 253.578C464.094 253.157 465.664 251.628 466.141 250.29C466.415 249.498 466.943 248.925 467.851 248.494C468.849 247.998 469.424 247.336 470.161 245.88C470.678 244.79 471.247 243.869 471.382 243.827C472.23 243.563 474.142 241.222 474.447 240.049C474.643 239.244 475.269 238.268 475.853 237.752C477.212 236.623 477.968 235.347 478.087 233.935C478.156 233.318 478.576 232.518 479.079 232.102C480.141 231.214 481.006 229.569 481.148 228.112C481.194 227.541 481.72 226.484 482.308 225.744C483.034 224.849 483.449 223.791 483.659 222.312C483.783 221.158 484.039 220.186 484.209 220.134C484.887 219.923 485.908 217.226 485.846 215.832C485.831 214.945 486.122 213.85 486.575 213.152C487.365 211.865 487.73 209.93 487.35 208.709C487.234 208.336 487.407 207.576 487.766 207.055C488.588 205.87 488.865 204.371 488.527 202.803C488.394 202.138 488.532 200.905 488.84 200.103C489.363 198.676 489.391 195.656 488.873 195.185C488.729 195.081 488.857 194.297 489.155 193.461C489.559 192.369 489.612 191.46 489.271 190.004C489.001 188.898 488.936 187.134 489.095 185.969C489.318 184.412 489.266 183.648 488.791 182.717C488.381 181.878 488.277 180.943 488.395 179.531C488.531 177.815 488.452 177.319 487.746 176.126C487.192 175.182 486.982 174.504 487.093 174.024C487.378 172.671 486.941 170.427 486.121 169.343C485.531 168.522 485.363 167.98 485.417 166.959C485.465 165.197 485.18 164.281 484.172 163.07C483.47 162.247 483.257 161.681 483.098 160.095C482.942 158.396 482.792 158.033 481.802 157.002C480.967 156.109 480.589 155.372 480.292 153.939C479.962 152.517 479.595 151.814 478.67 150.874C478.011 150.187 477.358 149.162 477.212 148.576C476.692 146.543 476.433 146.066 475.25 145.133C474.499 144.511 473.833 143.565 473.342 142.342C472.818 141.017 472.25 140.265 471.331 139.583C470.623 139.097 469.921 138.274 469.752 137.732C469.318 136.454 467.45 134.394 466.434 134.115C465.909 133.981 465.48 133.557 465.29 132.946C464.879 131.624 463.405 130.111 461.991 129.51C461.257 129.18 460.573 128.537 460.174 127.732C459.676 126.846 458.925 126.224 457.557 125.533C456.491 124.973 455.581 124.437 455.539 124.302C455.275 123.454 452.933 121.542 451.76 121.237C450.956 121.041 449.98 120.415 449.464 119.832C448.335 118.472 447.059 117.716 445.647 117.597C445.041 117.563 444.23 117.108 443.858 116.629C443.046 115.691 440.667 114.497 439.555 114.508C439.14 114.488 438.207 113.998 437.466 113.41C436.561 112.65 435.502 112.235 434.024 112.026C432.87 111.901 431.898 111.645 431.856 111.51C431.656 110.865 428.993 109.834 427.588 109.862C426.735 109.867 425.517 109.538 424.863 109.11C423.577 108.32 421.641 107.954 420.421 108.334C420.048 108.45 419.288 108.277 418.767 107.918C417.538 107.073 415.926 106.793 414.301 107.187C413.511 107.395 412.591 107.309 411.891 106.969C410.49 106.289 409.458 106.201 407.765 106.616C407.009 106.813 405.876 106.757 405.073 106.448C404.08 106.125 403.104 106.094 401.727 106.447C400.61 106.683 399.07 106.753 398.164 106.588C397.056 106.375 396.044 106.466 394.732 106.911C393.488 107.335 392.329 107.435 391.164 107.276C389.697 107.1 389.235 107.169 387.872 107.928C386.633 108.61 386.047 108.755 385.185 108.614C383.931 108.409 381.278 109.085 380.612 109.812C380.279 110.176 379.579 110.319 378.423 110.307C376.997 110.266 376.489 110.424 375.441 111.122C374.735 111.602 373.849 112.1 373.432 112.193C372.991 112.33 371.817 112.62 370.823 112.892C369.626 113.227 368.753 113.647 368.315 114.155C367.866 114.741 367.083 115.095 365.549 115.423C363.856 115.838 363.278 116.13 362.507 117.001C361.852 117.763 360.999 118.251 359.677 118.662C358.219 119.115 357.536 119.55 356.787 120.489C356.142 121.285 355.321 121.874 354.474 122.138C352.88 122.633 351.648 123.574 350.949 124.795C350.635 125.339 350.302 125.703 350.168 125.633C349.457 125.259 341.063 114.519 341.216 114.174C341.288 113.929 339.676 111.492 337.543 108.697L333.748 103.667L330.154 104.784L326.526 105.912L324.905 105.003C324.05 104.525 322.88 103.513 322.312 102.76C318.074 96.901 303.442 78.6558 302.052 77.4146C301.092 76.5976 300.05 75.3971 299.748 74.7845L299.22 73.6843L304.701 68.7087C307.721 65.9852 310.328 63.7249 310.464 63.6828C310.633 63.6301 311.08 63.7515 311.435 63.9384C311.992 64.1744 312.41 64.0819 313.434 63.4289C314.718 62.6578 314.797 62.6706 317.382 63.6892C319.799 64.6482 320.191 64.7124 322.424 64.2413L324.871 63.741L326.144 61.3748C327.032 59.6859 327.285 58.8263 327.023 58.4616C326.554 57.7894 326.757 57.7262 328.799 57.8352C330.279 57.9328 330.483 57.8696 330.878 57.2263C331.249 56.6274 331.521 56.5431 333.732 56.5995C335.079 56.627 337.262 56.9523 338.603 57.3166L341.004 57.9833L341.65 56.5926C341.979 55.8581 342.165 55.0196 342.023 54.8034C341.48 53.8938 337.451 52.6548 334.624 52.5297C332.715 52.4908 331.642 52.2667 331.536 51.9277C331.452 51.6564 330.583 50.7739 329.599 50.0014L327.854 48.5732L328.479 47.1147C329.937 43.91 327.966 40.321 324.396 39.7202C321.956 39.2886 320.572 39.9791 318.337 42.7187C314.144 47.889 311.91 50.0334 302.798 57.9222C294.991 64.6248 293.084 66.1469 292.721 65.8138C291.616 64.8928 286.409 67.9985 285.536 70.092C285.346 70.5598 286.139 71.9124 289.129 76.1513C292.6 81.0962 293.012 81.8234 293.637 84.1945C294.107 85.9449 294.666 87.1467 295.269 87.889C295.971 88.712 296.076 89.051 295.802 89.2476C295.597 89.4231 282.929 97.1158 267.6 106.416C252.295 115.672 227.29 130.806 212.086 140.031C196.872 149.221 184.251 156.825 184.014 156.899C183.776 156.973 183.258 156.502 182.857 155.808L182.107 154.591L183.894 153.404L185.637 152.193L185.098 149.98C184.787 148.739 184.392 147.709 184.269 147.673C184.146 147.636 182.929 148.386 181.608 149.28C180.298 150.208 179.159 150.971 179.125 150.982C179.024 151.013 177.073 148.087 164.316 128.813C158.084 119.41 151.078 108.833 148.747 105.282C146.393 101.775 144.568 98.7727 144.638 98.6394C144.697 98.4722 149.222 96.8799 154.66 95.1154C164.203 91.9635 164.722 91.8393 169.936 91.1483C176.006 90.3401 177.214 90.039 177.611 89.2835C178.452 87.6834 176.59 86.4774 172.712 86.0838C168.811 85.7347 164.491 86.6685 147.555 91.6349C132.324 96.1083 126.93 97.4132 120.241 98.265C117.405 98.5889 108.492 101.136 107.455 101.867ZM293.408 104.753C293.279 105.054 283.882 128.536 272.511 156.908C261.105 185.291 249.969 213.107 247.732 218.71C245.495 224.313 243.556 229.08 243.473 229.292C243.356 229.514 242.274 229.739 240.801 229.788C239.139 229.821 237.143 230.219 234.837 230.935C232.904 231.536 231.324 231.953 231.313 231.919C231.292 231.851 200.182 182.958 192.999 171.693C191.552 169.429 190.424 167.474 190.494 167.341C190.624 167.04 190.009 167.454 245.868 133.398C271.66 117.685 292.803 104.718 292.849 104.629C293.117 104.174 293.598 104.285 293.408 104.753ZM185.364 178.231C186.79 180.428 191.526 187.768 195.881 194.483C200.236 201.198 206.573 210.941 209.938 216.142C213.302 221.343 217.439 227.716 219.149 230.345C220.858 232.975 222.251 235.182 222.193 235.237C222.17 235.281 219.625 236.184 216.526 237.221L210.94 239.106L210.436 237.366C210.11 236.315 209.569 235.294 208.93 234.674C208.336 234.078 207.685 232.942 207.293 231.799C206.796 230.318 206.415 229.692 205.463 229.022C204.6 228.398 204.076 227.668 203.65 226.536C203.089 224.852 202.015 223.549 200.901 223.077C200.512 222.901 200.053 222.263 199.853 221.618C199.389 220.127 198.171 218.72 196.736 218.051C196.025 217.677 195.486 217.138 195.296 216.528C194.896 215.239 193.707 214.047 192.092 213.396C191.402 213.09 190.706 212.526 190.579 212.119C190.221 210.966 188.368 209.311 187.093 209.038C186.333 208.865 185.703 208.392 185.356 207.756C184.653 206.45 183.06 205.272 181.683 205.031C181.057 204.928 180.214 204.372 179.667 203.687C178.713 202.533 176.703 201.447 175.468 201.422C175.087 201.392 174.323 200.849 173.718 200.219C173.147 199.578 172.161 198.918 171.547 198.737L170.419 198.455L176.307 186.177C179.556 179.404 182.352 173.924 182.496 174.028C182.64 174.132 183.927 176 185.364 178.231ZM119.528 210.815C127.683 209.061 135.932 208.802 144.004 210.012C148.65 210.724 155.911 212.669 155.889 213.197C155.873 213.387 150.839 223.987 144.694 236.755C133.646 259.709 133.506 259.976 132.697 259.409C132.023 258.912 131.832 258.897 131.168 259.512C130.527 260.083 130.212 260.144 129.363 259.925C128.414 259.625 128.323 259.69 127.881 260.422C127.463 261.11 127.202 261.228 126.429 261.134C125.656 261.04 125.429 261.147 125.068 261.78C124.858 262.18 124.196 262.683 123.654 262.852C122.874 263.094 122.564 263.414 122.506 264.064C122.45 264.602 122.128 264.999 121.71 265.092C120.469 265.404 120.263 265.579 120.312 266.456C120.366 267.108 120.112 267.485 119.455 267.764C118.764 268.053 118.6 268.364 118.764 269.131C118.896 269.796 118.718 270.298 118.205 270.681C117.702 271.097 117.57 271.51 117.781 272.188C117.97 272.798 117.857 273.391 117.501 273.8C117.064 274.307 117.033 274.688 117.38 275.324C117.716 275.927 117.704 276.488 117.388 277.144C117.024 277.889 117.041 278.181 117.569 278.686C118.054 279.168 118.115 279.484 117.895 280.333C117.629 281.271 117.661 281.372 118.393 281.814C119.036 282.209 119.154 282.47 119.06 283.243C118.942 284.06 119.084 284.276 119.863 284.629C120.519 284.946 120.792 285.344 120.812 286.007C120.853 286.738 121.083 287.001 121.899 287.231C122.468 287.389 122.999 287.782 123.06 288.097C123.296 289.214 123.505 289.409 124.382 289.36C125.034 289.306 125.411 289.56 125.679 290.184C125.979 290.908 126.29 291.072 127.078 290.976C127.652 290.909 128.355 291.137 128.75 291.571C129.29 292.11 129.648 292.185 130.305 291.906L131.155 291.531L131.27 293.577C131.326 294.712 131.607 296.335 131.949 297.196C132.417 298.463 132.736 298.773 133.52 298.901C135.523 299.245 148.682 294.449 149.112 293.2C149.244 292.787 149.426 292.656 149.68 292.875C149.879 293.036 149.927 293.43 149.774 293.775C149.574 294.209 149.703 294.503 150.198 295.019C150.572 295.386 150.932 295.944 150.969 296.304C151.03 296.619 151.349 296.929 151.652 296.947C151.989 296.954 152.3 297.117 152.342 297.253C152.553 297.931 150.759 300.533 147.782 303.876C145.105 306.864 143.836 307.928 140.444 310.172C137.791 311.926 136.158 313.252 135.75 313.973C135.226 314.917 135.033 315.014 133.707 315.055C132.898 315.083 132.209 315.26 132.139 315.393C132.002 316.031 136.558 320.638 138.223 321.571C139.978 322.55 142.646 322.762 145.568 322.114C146.617 321.899 146.755 321.745 146.646 321.035C146.556 320.505 146.753 320.184 147.228 320.036C147.94 319.815 181.014 306.598 190.425 302.781C193.165 301.669 195.473 300.84 195.526 301.009C195.673 301.484 191.361 309.74 189.484 312.554C178.226 329.328 160.327 340.171 140.498 342.169C116.921 344.552 93.4959 334.022 79.749 314.796C64.9326 294.042 63.0738 267.365 74.8643 244.887C84.082 227.409 100.487 214.873 119.528 210.815ZM389.247 126.947C406.447 123.311 423.897 126.217 438.471 135.184C466.544 152.412 477.826 187.277 465.189 217.679C455.871 240.096 434.694 255.825 410.476 258.295C383.658 261.016 357.693 247.223 344.915 223.456C333.381 202.017 334.631 175.415 348.174 155.106C350.051 152.292 352.715 148.898 352.947 149.049C353.036 149.096 362.928 161.303 374.989 176.183C387.006 191.039 396.909 203.28 396.987 203.293C397.076 203.34 398.512 202.336 400.223 201.023C402.539 199.262 403.732 198.557 405.11 198.203C407.131 197.649 408.73 196.334 409.634 194.455C409.961 193.832 410.377 193.257 410.614 193.183C411.157 193.014 409.887 189.765 408.553 187.986C406.857 185.762 403.728 185.024 401.008 186.204L399.637 186.816L398.301 185.149C397.601 184.214 392.545 177.754 387.061 170.758C381.577 163.761 373.937 154.015 370.062 149.084C366.177 144.119 362.972 139.91 362.909 139.706C362.74 139.164 367.695 135.727 371.829 133.476C377.746 130.261 383.076 128.27 389.247 126.947ZM165.92 217.478C176.347 223.273 184.587 231.122 190.641 241.028C191.902 243.053 192.944 244.848 193.007 245.052C193.133 245.459 192.432 245.714 168.327 254.173C151.699 260.01 144.169 262.462 143.114 262.418C142.553 262.406 142.176 262.152 142.008 261.609C141.871 261.168 141.475 260.734 141.117 260.659C140.558 260.535 142.369 256.552 151.224 238.146C157.18 225.846 162.148 215.75 162.284 215.708C162.453 215.655 164.077 216.452 165.92 217.478ZM223.711 237.368C224.51 238.384 224.51 238.384 223.73 238.626C223.323 238.753 222.975 239.307 222.86 240.012C222.744 240.717 222.396 241.272 221.955 241.409C221.548 241.535 221.281 241.99 221.235 242.562C221.213 243.089 220.863 243.756 220.441 244.073C220.063 244.414 219.781 245.059 219.803 245.61C219.815 246.127 219.519 246.851 219.142 247.191C218.65 247.642 218.494 248.099 218.684 248.709C218.842 249.218 218.739 249.845 218.417 250.242C218.084 250.606 217.981 251.233 218.171 251.843C218.339 252.386 218.292 253.07 218.071 253.436C217.793 253.857 217.828 254.33 218.164 254.932C218.531 255.635 218.527 255.86 218.052 256.007C217.611 256.144 217.381 255.881 217.041 254.909C216.797 254.241 216.36 253.075 216.094 252.34C215.828 251.605 215.496 250.295 215.368 249.405C215.2 248.268 214.88 247.475 214.288 246.766C213.696 246.058 213.417 245.401 213.399 244.626C213.39 243.997 213.099 242.823 212.723 241.973L212.058 240.432L216.492 238.905C218.957 238.102 221.434 237.22 222.034 236.997C222.928 236.644 223.218 236.74 223.711 237.368ZM194.441 247.99C195.554 250.135 198.763 259.623 198.616 260.227C198.481 260.752 197.352 261.065 189.379 262.688C184.372 263.687 173.49 265.879 165.201 267.563C150.619 270.534 150.123 270.613 149.305 270.013C148.541 269.469 148.444 269.276 148.619 268.404C148.794 267.531 148.718 267.406 147.871 267.075C147.123 266.824 146.916 266.516 146.822 265.616C146.718 264.681 146.587 264.499 145.913 264.485C144.049 264.47 145.209 263.775 149.108 262.563C154.262 260.961 192.779 247.428 193.631 246.94C193.756 246.864 194.094 247.354 194.441 247.99ZM170.171 273.864C180.962 271.737 190.198 269.87 190.741 269.702C191.453 269.48 191.832 269.623 192.314 270.217C193.736 272.043 196.004 272.639 198.557 271.883C200.162 271.421 200.274 271.424 200.391 272.279C200.773 274.466 200.373 281.432 199.66 286.078C198.837 291.205 197.041 297.75 196.239 298.519C196.01 298.739 184.618 303.358 170.962 308.83L146.075 318.721L145.764 317.48C145.576 316.757 145.571 315.903 145.737 315.48C145.963 314.889 145.921 314.754 145.343 314.45C143.999 313.715 144.359 312.599 146.634 310.59C147.801 309.559 149.855 307.433 151.145 305.842C152.48 304.275 154.585 301.836 155.826 300.446C159.066 296.873 160.536 294.186 160.272 292.26C159.813 288.87 157.831 287.515 151.656 286.311C147.427 285.506 146.342 284.765 148.109 283.993C148.834 283.693 148.998 283.382 148.881 282.526C148.782 281.85 148.961 281.349 149.37 281.11C150.209 280.7 150.369 280.018 149.879 279.278C149.541 278.789 149.815 277.997 150.381 277.784C150.483 277.752 159.38 275.991 170.171 273.864ZM221.587 267.142C222.131 267.456 222.38 267.899 222.392 268.416C222.381 268.977 222.698 269.399 223.375 269.784C224.008 270.145 224.369 270.59 224.371 271.073C224.349 271.601 224.658 271.876 225.394 272.094C226.042 272.264 226.516 272.712 226.674 273.22C226.853 273.797 227.251 274.119 227.867 274.188C228.416 274.278 228.991 274.694 229.306 275.228C229.663 275.898 229.985 276.095 230.493 275.937C230.968 275.79 231.412 276.024 231.86 276.628C232.364 277.29 232.753 277.466 233.363 277.276C233.906 277.108 234.397 277.252 234.847 277.745C235.308 278.271 235.755 278.392 236.399 278.192C237.044 277.992 237.613 278.149 238.199 278.599C238.851 279.14 239.198 279.181 239.766 278.856C240.3 278.541 240.716 278.561 241.247 278.953C241.799 279.414 242.136 279.421 242.92 278.954C243.556 278.607 243.94 278.525 244.013 278.763C244.077 278.966 243.892 279.209 243.655 279.283C243.078 279.462 221.911 288.161 219.95 289.03C218.873 289.514 218.716 289.488 218.772 288.95C218.803 288.569 218.779 287.535 218.719 286.624C218.648 285.68 218.783 284.559 218.973 284.092C219.525 282.879 219.709 280.479 219.281 279.46C219.055 278.972 219.099 277.917 219.412 276.89C219.833 275.495 219.802 274.798 219.336 273.419C218.947 272.164 218.884 271.365 219.148 270.54C219.352 269.881 219.485 268.873 219.408 268.265C219.289 266.926 220.355 266.409 221.587 267.142Z" fill="black"/>
</g>
<defs>
<clipPath id="clip0_113_10">
<rect width="454.488" height="260.266" fill="white" transform="translate(0 134.893) rotate(-17.2657)"/>
</clipPath>
</defs>
</svg>
