<svg width="50" height="49" viewBox="0 0 29 28" fill="none" xmlns="http://www.w3.org/2000/svg">
<g clip-path="url(#clip0_2_75)">
<path d="M1.20834 1.16675H6.04168L9.28001 16.7884C9.39051 17.3255 9.69315 17.808 10.135 18.1514C10.5768 18.4948 11.1296 18.6772 11.6967 18.6667H23.4417C24.0087 18.6772 24.5616 18.4948 25.0034 18.1514C25.4452 17.808 25.7478 17.3255 25.8583 16.7884L27.7917 7.00008H7.25001M12.0833 24.5001C12.0833 25.1444 11.5424 25.6667 10.875 25.6667C10.2077 25.6667 9.66668 25.1444 9.66668 24.5001C9.66668 23.8557 10.2077 23.3334 10.875 23.3334C11.5424 23.3334 12.0833 23.8557 12.0833 24.5001ZM25.375 24.5001C25.375 25.1444 24.834 25.6667 24.1667 25.6667C23.4993 25.6667 22.9583 25.1444 22.9583 24.5001C22.9583 23.8557 23.4993 23.3334 24.1667 23.3334C24.834 23.3334 25.375 23.8557 25.375 24.5001Z" stroke="white" stroke-width="3.5" stroke-linecap="round" stroke-linejoin="round"/>
</g>
<defs>
<clipPath id="clip0_2_75">
<rect width="50" height="49" fill="white"/>
</clipPath>
</defs>
</svg>
